<svg xmlns="http://www.w3.org/2000/svg" width="612" height="253.63013702209332"><rect id="backgroundrect" width="100%" height="100%" x="0" y="0" fill="none" stroke="none"/><defs><style>.cls-1{fill:teal;}</style></defs><title>Artboard 22</title><g class="currentLayer" style=""><title>Layer 1</title><g id="Layer_2" data-name="Layer 2" class=""><path class="cls-1" d="M157.14507110595702,215.82465972900388 L154.36507110595704,208.4246597290039 a84.91,84.91 0 0 1 -46.46,2.15 l-2.08,7.59 A92.85,92.85 0 0 0 157.14507110595702,215.82465972900388 z" id="svg_1"/><path class="cls-1" d="M77.10507110595702,224.27465972900393 l4,-8.28 a99.36,99.36 0 0 1 -40.09,-38.3 l-8.08,4.36 A108.42,108.42 0 0 0 77.10507110595702,224.27465972900393 z" id="svg_2"/><path class="cls-1" d="M101.56507110595703,208.8746597290039 a85.9,85.9 0 0 1 -38.88,-25.52 l-6.14,4.91 a93.67,93.67 0 0 0 43,28.19 z" id="svg_3"/><path class="cls-1" d="M146.67507110595704,44.23465972900391 l2.08,-7.59 a92.82,92.82 0 0 0 -51.31,2.38 L100.21507110595704,46.424659729003906 A84.91,84.91 0 0 1 146.67507110595704,44.23465972900391 z" id="svg_4"/><path class="cls-1" d="M177.47507110595706,30.574659729003912 l-4,8.28 a99.14,99.14 0 0 1 35,30.46 h11.06 A108.29,108.29 0 0 0 177.47507110595706,30.574659729003912 z" id="svg_5"/><path class="cls-1" d="M163.31507110595703,213.5046597290039 a92.71,92.71 0 0 0 34,-24.39 H186.39507110595702 a84.78,84.78 0 0 1 -25.88,17 z" id="svg_6"/><path class="cls-1" d="M52.435071105957036,183.1446597290039 l6.14,-4.92 a85.61,85.61 0 0 1 -16.43,-43.53 l-7.86,0.37000000000000005 a93.59,93.59 0 0 0 18.15,48.08 z" id="svg_7"/><path class="cls-1" d="M94.06507110595703,48.70465972900391 L91.31507110595703,41.34465972900391 A92.75,92.75 0 0 0 51.20507110595702,73.4246597290039 l6.57,4.32 A84.91,84.91 0 0 1 94.06507110595703,48.70465972900391 z" id="svg_8"/><path class="cls-1" d="M153.01507110595702,45.9746597290039 a85.94,85.94 0 0 1 36.93,23.34 h4.68 l3.41,-2.73 A93.69,93.69 0 0 0 155.09507110595703,38.424659729003906 z" id="svg_9"/><path class="cls-1" d="M28.965071105957037,80.1746597290039 a108.8,108.8 0 0 0 -9.3,29.45 l9.1,1.22 a100.05,100.05 0 0 1 24,-50 l-6.65,-6.34 A109,109 0 0 0 28.965071105957037,80.1746597290039 z" id="svg_10"/><path class="cls-1" d="M104.50507110595703,20.79465972900391 a109.53,109.53 0 0 0 -53.82,29 l6.65,6.34 a100.27,100.27 0 0 1 48.82,-26.27 z" id="svg_11"/><path class="cls-1" d="M29.80507110595704,176.2646597290039 l8.08,-4.36 a100.43,100.43 0 0 1 -10,-54.54 l-9.11,-1.23 A109.63,109.63 0 0 0 29.80507110595704,176.2646597290039 z" id="svg_12"/><path class="cls-1" d="M47.60507110595702,78.96465972900391 a93.73,93.73 0 0 0 -13.620000000000001,49.53 l7.86,-0.36000000000000004 a85.8,85.8 0 0 1 12.32,-44.85 z" id="svg_13"/><path class="cls-1" d="M12.935071105957036,127.4246597290039 a113.78,113.78 0 0 1 4.63,-32.2 l-10,-3.25 a125.05,125.05 0 0 0 0,70.9 l10,-3.25 A113.78,113.78 0 0 1 12.935071105957036,127.4246597290039 z" id="svg_14"/><path class="cls-1" d="M203.905071105957,205.0846597290039 l-6.65,-6.34 a100.3,100.3 0 0 1 -48.83,26.27 l1.6500000000000001,9 A109.56,109.56 0 0 0 203.905071105957,205.0846597290039 z" id="svg_15"/><path class="cls-1" d="M19.595071105957032,165.8746597290039 l-10,3.25 A125.46,125.46 0 0 0 51.31507110595703,226.4246597290039 l6.18,-8.51 A114.83,114.83 0 0 1 19.595071105957032,165.8746597290039 z" id="svg_16"/><path class="cls-1" d="M141.96507110595704,226.20465972900388 a99.25,99.25 0 0 1 -55,-7.37 l-4,8.29 a108.39,108.39 0 0 0 60.58,8.12 z" id="svg_17"/><path class="cls-1" d="M130.57507110595702,241.72465972900392 v10.52 a124.06,124.06 0 0 0 67.4,-21.94 l-6.18,-8.51 A113.65,113.65 0 0 1 130.57507110595702,241.72465972900392 z" id="svg_18"/><path class="cls-1" d="M223.50507110595703,189.1146597290039 a115,115 0 0 1 -26.4,28.81 L203.31507110595703,226.4246597290039 a125.78,125.78 0 0 0 32.52,-37.32 z" id="svg_19"/><path class="cls-1" d="M56.60507110595702,230.3046597290039 a124.06,124.06 0 0 0 67.4,21.94 V241.72465972900392 a113.65,113.65 0 0 1 -61.22,-19.93 z" id="svg_20"/><path class="cls-1" d="M57.47507110595703,36.924659729003906 L51.31507110595703,28.424659729003906 a125.46,125.46 0 0 0 -41.7,57.31 l10,3.25 A114.83,114.83 0 0 1 57.47507110595703,36.924659729003906 z" id="svg_21"/><path class="cls-1" d="M197.97507110595706,24.54465972900391 a124.06,124.06 0 0 0 -67.4,-21.94 V13.124659729003909 a113.65,113.65 0 0 1 61.22,19.93 z" id="svg_22"/><path class="cls-1" d="M217.24507110595704,189.1146597290039 H205.86507110595704 c-1.31,1.6800000000000002 -2.67,3.3 -4.07,4.88 l6.65,6.34 A107.68,107.68 0 0 0 217.24507110595704,189.1146597290039 z" id="svg_23"/><path class="cls-1" d="M225.72507110595706,69.3146597290039 h12.06 A125.88,125.88 0 0 0 203.31507110595703,28.424659729003906 l-6.18,8.51 A115.25,115.25 0 0 1 225.72507110595706,69.3146597290039 z" id="svg_24"/><path class="cls-1" d="M124.00507110595703,13.124659729003909 V2.604659729003906 a124.06,124.06 0 0 0 -67.4,21.94 l6.18,8.51 A113.65,113.65 0 0 1 124.00507110595703,13.124659729003909 z" id="svg_25"/><path class="cls-1" d="M112.61507110595704,28.644659729003905 a99.28,99.28 0 0 1 55,7.37 l4,-8.29 a108.42,108.42 0 0 0 -60.59,-8.12 z" id="svg_26"/><path d="M96.57507110595702,87.51465972900391 a17.48,17.48 0 0 1 12.19,4.68 a0.93,0.93 0 0 1 0.05000000000000001,1.4100000000000001 l-2.21,2.27 c-0.36000000000000004,0.46 -0.81,0.46 -1.26,0 a13.7,13.7 0 0 0 -8.72,-3.37 a13.08,13.08 0 0 0 0.05000000000000001,26.15 A13.48,13.48 0 0 0 105.31507110595703,115.32465972900391 a0.93,0.93 0 0 1 1.21,-0.05000000000000001 l2.31,2.27 a1,1 0 0 1 -0.05000000000000001,1.36 a17.31,17.31 0 0 1 -12.24,4.890000000000001 a18.14,18.14 0 1 1 0,-36.28 z" id="svg_27"/><path d="M115.01507110595702,88.97465972900392 a1,1 0 0 1 1,-1 H119.31507110595703 a1,1 0 0 1 1,1 v33.36 a1,1 0 0 1 -1,1 h-3.3200000000000003 a1,1 0 0 1 -1,-1 z" id="svg_28"/><path d="M129.02507110595704,88.97465972900392 a1,1 0 0 1 1,-1 h13.7 a10.88,10.88 0 0 1 11,10.78 c0,4.640000000000001 -3.08,8.47 -7.46,10.23 l6.9,12.8 a1,1 0 0 1 -0.8500000000000001,1.46 H149.31507110595703 a0.93,0.93 0 0 1 -0.81,-0.45 l-6.7,-13.35 H134.21507110595704 v12.85 a1,1 0 0 1 -1,1 h-3.27 a1,1 0 0 1 -1,-1 zM143.31507110595703,105.1446597290039 a6.26,6.26 0 0 0 6.15,-6.25 a6.18,6.18 0 0 0 -6.15,-6 h-9 v12.24 z" id="svg_29"/><path d="M177.14507110595702,87.51465972900391 A17.48,17.48 0 0 1 189.31507110595703,92.19465972900392 a0.93,0.93 0 0 1 0.05000000000000001,1.4100000000000001 l-2.21,2.27 c-0.36000000000000004,0.46 -0.81,0.46 -1.26,0 a13.7,13.7 0 0 0 -8.72,-3.37 a13.08,13.08 0 0 0 0.05000000000000001,26.15 a13.48,13.48 0 0 0 8.67,-3.33 a0.93,0.93 0 0 1 1.21,-0.05000000000000001 l2.3200000000000003,2.27 a1,1 0 0 1 -0.06000000000000001,1.36 a17.29,17.29 0 0 1 -12.24,4.890000000000001 a18.14,18.14 0 1 1 0,-36.28 z" id="svg_30"/><path d="M195.13507110595702,88.97465972900392 a1,1 0 0 1 1,-1 h3.37 a1,1 0 0 1 1,1 v20.81 c0,5 3.23,9 8.36,9 s8.47,-3.88 8.47,-8.870000000000001 V88.97465972900392 a1,1 0 0 1 1,-1 h3.37 a1,1 0 0 1 1,1 v21.16 a13.71,13.71 0 0 1 -27.41,0 z" id="svg_31"/><path d="M230.85507110595705,88.97465972900392 a1,1 0 0 1 1,-1 h3.33 a1,1 0 0 1 1,1 v29.63 h13.65 a1,1 0 0 1 1,0.9500000000000001 v2.7800000000000002 a1,1 0 0 1 -1,1 H231.81507110595703 a1,1 0 0 1 -1,-1 z" id="svg_32"/><path d="M251.82507110595702,121.97465972900392 L267.31507110595703,88.06465972900389 a1.17,1.17 0 0 1 0.8500000000000001,-0.55 h0.51 a1.17,1.17 0 0 1 0.8500000000000001,0.55 l15.37,33.91 a0.8900000000000001,0.8900000000000001 0 0 1 -0.8600000000000001,1.31 h-3.17 a1.17,1.17 0 0 1 -1.1600000000000001,-0.7500000000000001 l-3.12,-6.91 H260.085071105957 c-1,2.3200000000000003 -2.07,4.59 -3.07,6.91 a1.28,1.28 0 0 1 -1.1600000000000001,0.7500000000000001 h-3.18 A0.8900000000000001,0.8900000000000001 0 0 1 251.82507110595702,121.97465972900392 zm22.82,-10.68 l-6.2,-13.81 h-0.25 l-6.15,13.81 z" id="svg_33"/><path d="M288.905071105957,88.97465972900392 a1,1 0 0 1 1,-1 h13.7 a10.88,10.88 0 0 1 11,10.78 c0,4.640000000000001 -3.07,8.47 -7.46,10.23 l6.91,12.8 a1,1 0 0 1 -0.8600000000000001,1.46 H309.215071105957 a0.93,0.93 0 0 1 -0.81,-0.45 l-6.7,-13.35 h-7.61 v12.85 a1,1 0 0 1 -1,1 h-3.27 a1,1 0 0 1 -1,-1 zm14.26,16.17 a6.26,6.26 0 0 0 6.15,-6.25 a6.17,6.17 0 0 0 -6.15,-6 h-9 v12.24 z" id="svg_34"/><path d="M326.74507110595704,121.97465972900392 l15.47,-33.91 a1.19,1.19 0 0 1 0.8600000000000001,-0.55 h0.5 a1.19,1.19 0 0 1 0.8600000000000001,0.55 l15.37,33.91 a0.8900000000000001,0.8900000000000001 0 0 1 -0.8600000000000001,1.31 h-3.17 a1.17,1.17 0 0 1 -1.1600000000000001,-0.7500000000000001 l-3.13,-6.91 H335.015071105957 c-1,2.3200000000000003 -2.07,4.59 -3.08,6.91 a1.26,1.26 0 0 1 -1.1600000000000001,0.7500000000000001 h-3.17 A0.8900000000000001,0.8900000000000001 0 0 1 326.74507110595704,121.97465972900392 zm22.83,-10.68 l-6.2,-13.81 h-0.25 l-6.15,13.81 z" id="svg_35"/><path d="M363.835071105957,88.97465972900392 a1,1 0 0 1 1,-1 H376.31507110595703 a11.24,11.24 0 1 1 0.05000000000000001,22.47 h-7.3 v11.85 a1,1 0 0 1 -1,1 h-3.27 a1,1 0 0 1 -1,-1 zm12.14,16.58 a6.42,6.42 0 0 0 6.4,-6.45 a6.21,6.21 0 0 0 -6.4,-6.05 h-7 v12.5 z" id="svg_36"/><path d="M392.75507110595703,88.97465972900392 a1,1 0 0 1 1,-1 h11.49 a11.24,11.24 0 1 1 0.05000000000000001,22.47 h-7.3100000000000005 v11.85 a1,1 0 0 1 -1,1 H393.715071105957 a1,1 0 0 1 -1,-1 zm12.15,16.58 a6.42,6.42 0 0 0 6.39,-6.45 a6.21,6.21 0 0 0 -6.39,-6.05 h-7 v12.5 z" id="svg_37"/><path d="M415.235071105957,121.97465972900392 l15.46,-33.91 a1.21,1.21 0 0 1 0.8600000000000001,-0.55 h0.51 a1.17,1.17 0 0 1 0.8500000000000001,0.55 L448.31507110595703,121.97465972900392 a0.8900000000000001,0.8900000000000001 0 0 1 -0.8600000000000001,1.31 h-3.17 a1.17,1.17 0 0 1 -1.1600000000000001,-0.7500000000000001 l-3.12,-6.91 H423.495071105957 c-1,2.3200000000000003 -2.07,4.59 -3.07,6.91 a1.28,1.28 0 0 1 -1.1600000000000001,0.7500000000000001 h-3.18 A0.8900000000000001,0.8900000000000001 0 0 1 415.235071105957,121.97465972900392 zm22.82,-10.68 l-6.2,-13.81 h-0.25 l-6.15,13.81 z" id="svg_38"/><path d="M452.31507110595703,88.97465972900392 a1,1 0 0 1 1,-1 h13.7 a10.88,10.88 0 0 1 11,10.78 c0,4.640000000000001 -3.07,8.47 -7.46,10.23 l6.9,12.8 a1,1 0 0 1 -0.8500000000000001,1.46 h-3.93 a0.93,0.93 0 0 1 -0.81,-0.45 l-6.7,-13.35 h-7.61 v12.85 a1,1 0 0 1 -1,1 H453.31507110595703 a1,1 0 0 1 -1,-1 zm14.26,16.17 a6.26,6.26 0 0 0 6.15,-6.25 a6.17,6.17 0 0 0 -6.15,-6 h-9 v12.24 z" id="svg_39"/><path d="M484.81507110595703,88.97465972900392 a1,1 0 0 1 1,-1 h20.15 a1,1 0 0 1 1,1 v2.8200000000000003 a1,1 0 0 1 -1,1 H490.0050711059571 v10.28 h13.46 a1,1 0 0 1 1,0.9500000000000001 v2.83 a1,1 0 0 1 -1,1 H490.0050711059571 v10.84 h15.92 a1,1 0 0 1 1,0.9500000000000001 v2.7800000000000002 a1,1 0 0 1 -1,1 H485.77507110595707 a1,1 0 0 1 -1,-1 z" id="svg_40"/><path d="M513.485071105957,88.97465972900392 a1,1 0 0 1 1,-1 h3.33 a1,1 0 0 1 0.9500000000000001,1 v29.63 h13.66 a1,1 0 0 1 1,0.9500000000000001 v2.7800000000000002 a1,1 0 0 1 -1,1 H514.445071105957 a1,1 0 0 1 -1,-1 z" id="svg_41"/><path d="M80.95507110595702,136.8846597290039 a1,1 0 0 1 1,-1 h3.3200000000000003 a1,1 0 0 1 1,1 v33.36 a1,1 0 0 1 -1,1 H81.91507110595703 a1,1 0 0 1 -1,-1 z" id="svg_42"/><path d="M94.96507110595704,136.3346597290039 a1,1 0 0 1 0.9500000000000001,-0.91 h1.26 l21.87,25.3 h0.05000000000000001 V136.8846597290039 a1,1 0 0 1 1,-1 H123.31507110595703 a1,1 0 0 1 1,1 v33.91 a0.9400000000000001,0.9400000000000001 0 0 1 -1,0.91 h-1.31 l-21.86,-26 h0 v24.54 a1,1 0 0 1 -1,1 H95.91507110595703 a1,1 0 0 1 -0.9500000000000001,-1 z" id="svg_43"/><path d="M133.00507110595703,136.3346597290039 a1,1 0 0 1 1,-0.91 h1.26 l21.87,25.3 h0.05000000000000001 V136.8846597290039 a1,1 0 0 1 0.9500000000000001,-1 H161.31507110595703 a1,1 0 0 1 1,1 v33.91 a1,1 0 0 1 -1,0.91 H160.01507110595702 l-21.87,-26 h-0.05000000000000001 v24.54 a1,1 0 0 1 -1,1 h-3.17 a1,1 0 0 1 -1,-1 z" id="svg_44"/><path d="M186.56507110595703,135.4246597290039 a18.14,18.14 0 1 1 -18.09,18.19 A18.1,18.1 0 0 1 186.56507110595703,135.4246597290039 zm0,31.24 a13.1,13.1 0 1 0 -13.05,-13.05 A13.09,13.09 0 0 0 186.56507110595703,166.66465972900392 z" id="svg_45"/><path d="M205.965071105957,137.2446597290039 a0.8900000000000001,0.8900000000000001 0 0 1 0.8600000000000001,-1.31 h3.58 a1,1 0 0 1 0.8500000000000001,0.55 L222.31507110595703,161.4246597290039 h0.30000000000000004 l11.09,-24.94 a0.92,0.92 0 0 1 0.8500000000000001,-0.55 h3.58 a0.8900000000000001,0.8900000000000001 0 0 1 0.8600000000000001,1.31 l-15.47,33.91 a1,1 0 0 1 -0.8600000000000001,0.55 h-0.5 a1,1 0 0 1 -0.8600000000000001,-0.55 z" id="svg_46"/><path d="M236.10507110595705,169.8946597290039 l15.46,-33.91 a1.19,1.19 0 0 1 0.8600000000000001,-0.56 h0.51 a1.1600000000000001,1.1600000000000001 0 0 1 0.8500000000000001,0.56 l15.37,33.91 a0.8900000000000001,0.8900000000000001 0 0 1 -0.8600000000000001,1.31 h-3.17 a1.1600000000000001,1.1600000000000001 0 0 1 -1.1600000000000001,-0.7600000000000001 l-3.12,-6.9 H244.36507110595704 c-1,2.3200000000000003 -2.07,4.58 -3.07,6.9 a1.29,1.29 0 0 1 -1.1600000000000001,0.7600000000000001 h-3.18 A0.8900000000000001,0.8900000000000001 0 0 1 236.10507110595705,169.8946597290039 zm22.82,-10.68 L252.72507110595706,145.4246597290039 h-0.25 L246.31507110595703,159.2146597290039 z" id="svg_47"/><path d="M276.155071105957,140.66465972900392 h-8.21 a1,1 0 0 1 -1,-1 v-2.8200000000000003 a1,1 0 0 1 1,-1 H289.61507110595704 a1,1 0 0 1 1,1 v2.8200000000000003 a1,1 0 0 1 -1,1 h-8.21 v29.58 a1,1 0 0 1 -1,1 H277.11507110595704 a1,1 0 0 1 -1,-1 z" id="svg_48"/><path d="M295.00507110595703,136.8846597290039 a1,1 0 0 1 1,-1 H299.31507110595703 a1,1 0 0 1 1,1 v33.36 a1,1 0 0 1 -1,1 h-3.3200000000000003 a1,1 0 0 1 -1,-1 z" id="svg_49"/><path d="M324.53507110595706,135.4246597290039 a18.14,18.14 0 1 1 -18.09,18.19 A18.11,18.11 0 0 1 324.53507110595706,135.4246597290039 zm0,31.24 a13.1,13.1 0 1 0 -13.05,-13.05 A13.1,13.1 0 0 0 324.53507110595706,166.66465972900392 z" id="svg_50"/><path d="M348.86507110595704,136.3346597290039 a1,1 0 0 1 1,-0.91 h1.26 l21.87,25.3 h0.05000000000000001 V136.8846597290039 a1,1 0 0 1 1,-1 h3.22 a1,1 0 0 1 1,1 v33.91 a0.9400000000000001,0.9400000000000001 0 0 1 -1,0.91 h-1.31 l-21.87,-26 h-0.05000000000000001 v24.54 a1,1 0 0 1 -0.9500000000000001,1 h-3.18 a1,1 0 0 1 -1,-1 z" id="svg_51"/><path d="M396.99507110595704,136.8846597290039 a1,1 0 0 1 0.9500000000000001,-1 h20.16 a1,1 0 0 1 1,1 v2.8200000000000003 a1,1 0 0 1 -1,1 H402.18507110595704 v11.64 h13.45 a1,1 0 0 1 1,1 v2.77 a1,1 0 0 1 -1,1 H402.18507110595704 v13.25 a1,1 0 0 1 -1,1 h-3.2800000000000002 a1,1 0 0 1 -0.9500000000000001,-1 z" id="svg_52"/><path d="M418.605071105957,169.8946597290039 l15.47,-33.91 a1.17,1.17 0 0 1 0.8600000000000001,-0.56 h0.5 a1.17,1.17 0 0 1 0.8600000000000001,0.56 l15.37,33.91 a0.8900000000000001,0.8900000000000001 0 0 1 -0.8600000000000001,1.31 h-3.17 a1.1600000000000001,1.1600000000000001 0 0 1 -1.1600000000000001,-0.7600000000000001 l-3.13,-6.9 H426.875071105957 c-1,2.3200000000000003 -2.07,4.58 -3.08,6.9 a1.27,1.27 0 0 1 -1.1600000000000001,0.7600000000000001 h-3.17 A0.8900000000000001,0.8900000000000001 0 0 1 418.605071105957,169.8946597290039 zm22.83,-10.68 L435.235071105957,145.4246597290039 h-0.25 l-6.15,13.81 z" id="svg_53"/><path d="M471.115071105957,135.4246597290039 A17.5,17.5 0 0 1 483.31507110595703,140.1146597290039 a0.9400000000000001,0.9400000000000001 0 0 1 0,1.4100000000000001 l-2.22,2.27 c-0.35000000000000003,0.45 -0.8,0.45 -1.26,0 a13.61,13.61 0 0 0 -8.71,-3.38 a13.08,13.08 0 0 0 0,26.15 a13.47,13.47 0 0 0 8.66,-3.3200000000000003 a0.9,0.9 0 0 1 1.21,0 l2.3200000000000003,2.26 a1,1 0 0 1 -0.05000000000000001,1.36 a17.26,17.26 0 0 1 -12.24,4.890000000000001 a18.14,18.14 0 1 1 0,-36.28 z" id="svg_54"/><path d="M494.3950711059571,140.66465972900392 h-8.22 a1,1 0 0 1 -1,-1 v-2.8200000000000003 a1,1 0 0 1 1,-1 h21.67 a1,1 0 0 1 1,1 v2.8200000000000003 a1,1 0 0 1 -1,1 h-8.21 v29.58 a1,1 0 0 1 -1,1 H495.31507110595703 a1,1 0 0 1 -0.9500000000000001,-1 z" id="svg_55"/><path d="M528.2550711059571,135.4246597290039 a18.14,18.14 0 1 1 -18.09,18.19 A18.1,18.1 0 0 1 528.2550711059571,135.4246597290039 zm0,31.24 a13.1,13.1 0 1 0 -13.05,-13.05 A13.1,13.1 0 0 0 528.2550711059571,166.66465972900392 z" id="svg_56"/><path d="M552.595071105957,136.8846597290039 a1,1 0 0 1 1,-1 h13.71 a10.86,10.86 0 0 1 11,10.78 c0,4.63 -3.07,8.46 -7.45,10.23 l6.9,12.8 a1,1 0 0 1 -0.8600000000000001,1.46 h-3.93 a0.91,0.91 0 0 1 -0.8,-0.46 L565.3850711059571,157.4246597290039 h-7.6 v12.85 a1,1 0 0 1 -1,1 h-3.2800000000000002 a1,1 0 0 1 -1,-1 zm14.26,16.18 a6.26,6.26 0 0 0 6.14,-6.25 a6.17,6.17 0 0 0 -6.14,-6 h-9 v12.25 z" id="svg_57"/><path d="M591.995071105957,154.22465972900392 L580.205071105957,137.4246597290039 a0.93,0.93 0 0 1 0.81,-1.46 h3.72 a1,1 0 0 1 0.81,0.45 l9.12,12.85 L603.7850711059571,136.4246597290039 a1.08,1.08 0 0 1 0.81,-0.45 h3.7800000000000002 a0.93,0.93 0 0 1 0.8,1.46 l-11.94,16.78 v16.07 a1,1 0 0 1 -1,1 h-3.3200000000000003 a1,1 0 0 1 -1,-1 z" id="svg_58"/><path class="cls-1" d="M437.475071105957,201.3246597290039 h-1.78 V204.4246597290039 h1.78 a1.59,1.59 0 0 0 1.59,-1.6 A1.54,1.54 0 0 0 437.475071105957,201.3246597290039 z" id="svg_59"/><polygon class="cls-1" points="421.91504669189453,203.14466094970703 420.4050979614258,206.53466033935547 423.5050735473633,206.53466033935547 421.96509552001953,203.14466094970703 421.91504669189453,203.14466094970703 " id="svg_60"/><polygon class="cls-1" points="520.565071105957,203.14466094970703 519.055061340332,206.53466033935547 522.1450881958008,206.53466033935547 520.6050491333008,203.14466094970703 520.565071105957,203.14466094970703 " id="svg_61"/><polygon class="cls-1" points="270.29508209228516,203.14466094970703 268.78507232666016,206.53466033935547 271.8750686645508,206.53466033935547 270.3450698852539,203.14466094970703 270.29508209228516,203.14466094970703 " id="svg_62"/><path class="cls-1" d="M250.465071105957,189.0946597290039 c-6.91,12.5 -11.21,19.68 -25.56,31.8 H598.075071105957 v-31.8 zm24.71,21.12 h-1.34 a0.46,0.46 0 0 1 -0.45,-0.31000000000000005 l-0.7500000000000001,-1.6600000000000001 h-4.6 l-0.7600000000000001,1.6600000000000001 a0.47000000000000003,0.47000000000000003 0 0 1 -0.44000000000000006,0.31000000000000005 h-1.34 a0.27,0.27 0 0 1 -0.26,-0.4 L270.015071105957,199.4246597290039 a0.28,0.28 0 0 1 0.26,-0.17 h0.16000000000000003 a0.26,0.26 0 0 1 0.26,0.17 l4.74,10.36 A0.27,0.27 0 0 1 275.17507110595704,210.21465972900393 zm16,-0.13 a0.29000000000000004,0.29000000000000004 0 0 1 -0.29000000000000004,0.28 h-0.37000000000000005 l-6.43,-7.07 h0 v6.62 a0.29000000000000004,0.29000000000000004 0 0 1 -0.29000000000000004,0.30000000000000004 h-1.4 a0.31000000000000005,0.31000000000000005 0 0 1 -0.30000000000000004,-0.30000000000000004 V199.5546597290039 a0.29000000000000004,0.29000000000000004 0 0 1 0.30000000000000004,-0.27 h0.38000000000000006 l6.4,6.8 h0 V199.72465972900392 a0.29000000000000004,0.29000000000000004 0 0 1 0.29000000000000004,-0.29000000000000004 h1.42 a0.30000000000000004,0.30000000000000004 0 0 1 0.29000000000000004,0.29000000000000004 zm18.69,-0.17 a0.31000000000000005,0.31000000000000005 0 0 1 -0.30000000000000004,0.30000000000000004 h-1.4300000000000002 a0.31000000000000005,0.31000000000000005 0 0 1 -0.29000000000000004,-0.30000000000000004 V199.72465972900392 a0.30000000000000004,0.30000000000000004 0 0 1 0.29000000000000004,-0.29000000000000004 h1.4300000000000002 a0.31000000000000005,0.31000000000000005 0 0 1 0.30000000000000004,0.29000000000000004 zm17.13,0.17 a0.29000000000000004,0.29000000000000004 0 0 1 -0.30000000000000004,0.28 H326.31507110595703 l-6.43,-7.07 h0 v6.62 a0.30000000000000004,0.30000000000000004 0 0 1 -0.30000000000000004,0.30000000000000004 h-1.4 a0.31000000000000005,0.31000000000000005 0 0 1 -0.29000000000000004,-0.30000000000000004 V199.5546597290039 a0.29000000000000004,0.29000000000000004 0 0 1 0.29000000000000004,-0.27 h0.39000000000000007 l6.4,6.8 h0 V199.72465972900392 A0.29000000000000004,0.29000000000000004 0 0 1 325.31507110595703,199.4246597290039 h1.4100000000000001 a0.31000000000000005,0.31000000000000005 0 0 1 0.30000000000000004,0.29000000000000004 zm14.14,-9.09 a0.29000000000000004,0.29000000000000004 0 0 1 -0.29000000000000004,0.29000000000000004 h-2.36 v8.63 a0.30000000000000004,0.30000000000000004 0 0 1 -0.29000000000000004,0.30000000000000004 h-1.4300000000000002 a0.31000000000000005,0.31000000000000005 0 0 1 -0.29000000000000004,-0.30000000000000004 v-8.63 h-2.36 a0.29000000000000004,0.29000000000000004 0 0 1 -0.29000000000000004,-0.29000000000000004 V199.72465972900392 a0.29000000000000004,0.29000000000000004 0 0 1 0.29000000000000004,-0.29000000000000004 h6.73 a0.29000000000000004,0.29000000000000004 0 0 1 0.29000000000000004,0.29000000000000004 zm13.68,0 a0.29000000000000004,0.29000000000000004 0 0 1 -0.29000000000000004,0.29000000000000004 h-4.55 v2.52 h3.8 a0.31000000000000005,0.31000000000000005 0 0 1 0.29000000000000004,0.30000000000000004 V205.4246597290039 a0.30000000000000004,0.30000000000000004 0 0 1 -0.29000000000000004,0.30000000000000004 h-3.8 v2.6900000000000004 h4.55 a0.29000000000000004,0.29000000000000004 0 0 1 0.29000000000000004,0.29000000000000004 v1.26 a0.29000000000000004,0.29000000000000004 0 0 1 -0.29000000000000004,0.30000000000000004 h-6.26 a0.29000000000000004,0.29000000000000004 0 0 1 -0.29000000000000004,-0.30000000000000004 V199.72465972900392 a0.29000000000000004,0.29000000000000004 0 0 1 0.29000000000000004,-0.29000000000000004 h6.26 a0.29000000000000004,0.29000000000000004 0 0 1 0.29000000000000004,0.29000000000000004 zm13.66,8.92 a0.30000000000000004,0.30000000000000004 0 0 1 -0.30000000000000004,0.30000000000000004 h-5.63 a0.29000000000000004,0.29000000000000004 0 0 1 -0.29000000000000004,-0.30000000000000004 V199.72465972900392 a0.29000000000000004,0.29000000000000004 0 0 1 0.29000000000000004,-0.29000000000000004 h1.42 a0.30000000000000004,0.30000000000000004 0 0 1 0.29000000000000004,0.29000000000000004 v8.64 h3.92 a0.30000000000000004,0.30000000000000004 0 0 1 0.30000000000000004,0.29000000000000004 zm13,0 a0.29000000000000004,0.29000000000000004 0 0 1 -0.29000000000000004,0.30000000000000004 h-5.63 a0.30000000000000004,0.30000000000000004 0 0 1 -0.30000000000000004,-0.30000000000000004 V199.72465972900392 a0.30000000000000004,0.30000000000000004 0 0 1 0.30000000000000004,-0.29000000000000004 h1.4100000000000001 a0.30000000000000004,0.30000000000000004 0 0 1 0.29000000000000004,0.29000000000000004 v8.64 h3.93 a0.29000000000000004,0.29000000000000004 0 0 1 0.29000000000000004,0.29000000000000004 zm13.64,-8.92 a0.29000000000000004,0.29000000000000004 0 0 1 -0.29000000000000004,0.29000000000000004 h-4.5600000000000005 v2.52 h3.8 a0.31000000000000005,0.31000000000000005 0 0 1 0.30000000000000004,0.30000000000000004 V205.4246597290039 a0.30000000000000004,0.30000000000000004 0 0 1 -0.30000000000000004,0.30000000000000004 h-3.8 v2.6900000000000004 h4.5600000000000005 a0.29000000000000004,0.29000000000000004 0 0 1 0.29000000000000004,0.29000000000000004 v1.26 a0.29000000000000004,0.29000000000000004 0 0 1 -0.29000000000000004,0.30000000000000004 h-6.27 a0.29000000000000004,0.29000000000000004 0 0 1 -0.29000000000000004,-0.30000000000000004 V199.72465972900392 a0.29000000000000004,0.29000000000000004 0 0 1 0.29000000000000004,-0.29000000000000004 h6.27 a0.29000000000000004,0.29000000000000004 0 0 1 0.29000000000000004,0.29000000000000004 zm15.9,7.88 a5.3100000000000005,5.3100000000000005 0 0 1 -3.74,1.49 a5.54,5.54 0 1 1 0,-11.08 a5.19,5.19 0 0 1 3.72,1.4300000000000002 a0.29000000000000004,0.29000000000000004 0 0 1 0,0.43000000000000005 l-0.9400000000000001,1 a0.25,0.25 0 0 1 -0.38000000000000006,0 a3.6500000000000004,3.6500000000000004 0 0 0 -2.37,-0.91 a3.5700000000000003,3.5700000000000003 0 0 0 0,7.14 a3.74,3.74 0 0 0 2.36,-0.8700000000000001 a0.27,0.27 0 0 1 0.38000000000000006,0 l0.9500000000000001,1 A0.29000000000000004,0.29000000000000004 0 0 1 411.00507110595703,208.8746597290039 zm15.79,1.34 h-1.34 a0.44000000000000006,0.44000000000000006 0 0 1 -0.44000000000000006,-0.31000000000000005 l-0.7600000000000001,-1.6600000000000001 h-4.6 l-0.7600000000000001,1.6600000000000001 a0.47000000000000003,0.47000000000000003 0 0 1 -0.44000000000000006,0.31000000000000005 H417.115071105957 a0.27,0.27 0 0 1 -0.26,-0.4 L421.6350711059571,199.4246597290039 a0.28,0.28 0 0 1 0.27,-0.17 h0.15000000000000002 a0.25,0.25 0 0 1 0.26,0.17 l4.74,10.36 A0.27,0.27 0 0 1 426.79507110595705,210.21465972900393 zm10.82,-3.91 h-1.92 v3.6100000000000003 a0.31000000000000005,0.31000000000000005 0 0 1 -0.30000000000000004,0.30000000000000004 h-1.4100000000000001 a0.29000000000000004,0.29000000000000004 0 0 1 -0.29000000000000004,-0.30000000000000004 V199.72465972900392 a0.29000000000000004,0.29000000000000004 0 0 1 0.29000000000000004,-0.29000000000000004 h3.62 a3.44,3.44 0 1 1 0,6.87 zm21.07,3.6100000000000003 a0.31000000000000005,0.31000000000000005 0 0 1 -0.29000000000000004,0.30000000000000004 h-1.4300000000000002 a0.30000000000000004,0.30000000000000004 0 0 1 -0.29000000000000004,-0.30000000000000004 V199.72465972900392 a0.30000000000000004,0.30000000000000004 0 0 1 0.29000000000000004,-0.29000000000000004 h1.4300000000000002 a0.30000000000000004,0.30000000000000004 0 0 1 0.29000000000000004,0.29000000000000004 zm17.13,0.17 a0.29000000000000004,0.29000000000000004 0 0 1 -0.29000000000000004,0.28 h-0.37000000000000005 l-6.43,-7.07 h0 v6.62 a0.29000000000000004,0.29000000000000004 0 0 1 -0.29000000000000004,0.30000000000000004 h-1.4 a0.30000000000000004,0.30000000000000004 0 0 1 -0.29000000000000004,-0.30000000000000004 V199.5546597290039 a0.28,0.28 0 0 1 0.29000000000000004,-0.27 h0.38000000000000006 l6.41,6.8 h0 V199.72465972900392 a0.29000000000000004,0.29000000000000004 0 0 1 0.29000000000000004,-0.29000000000000004 h1.42 a0.30000000000000004,0.30000000000000004 0 0 1 0.29000000000000004,0.29000000000000004 zm10,-0.17 a0.31000000000000005,0.31000000000000005 0 0 1 -0.29000000000000004,0.30000000000000004 h-1.4300000000000002 a0.31000000000000005,0.31000000000000005 0 0 1 -0.29000000000000004,-0.30000000000000004 V199.72465972900392 a0.30000000000000004,0.30000000000000004 0 0 1 0.29000000000000004,-0.29000000000000004 h1.4300000000000002 a0.30000000000000004,0.30000000000000004 0 0 1 0.29000000000000004,0.29000000000000004 zm14.15,-8.92 a0.30000000000000004,0.30000000000000004 0 0 1 -0.29000000000000004,0.29000000000000004 h-2.36 v8.63 a0.31000000000000005,0.31000000000000005 0 0 1 -0.29000000000000004,0.30000000000000004 h-1.4300000000000002 a0.31000000000000005,0.31000000000000005 0 0 1 -0.30000000000000004,-0.30000000000000004 v-8.63 h-2.35 a0.29000000000000004,0.29000000000000004 0 0 1 -0.29000000000000004,-0.29000000000000004 V199.72465972900392 a0.29000000000000004,0.29000000000000004 0 0 1 0.29000000000000004,-0.29000000000000004 h6.73 a0.30000000000000004,0.30000000000000004 0 0 1 0.29000000000000004,0.29000000000000004 zm8.85,8.92 a0.31000000000000005,0.31000000000000005 0 0 1 -0.29000000000000004,0.30000000000000004 h-1.44 a0.31000000000000005,0.31000000000000005 0 0 1 -0.29000000000000004,-0.30000000000000004 V199.72465972900392 a0.30000000000000004,0.30000000000000004 0 0 1 0.29000000000000004,-0.29000000000000004 h1.44 a0.30000000000000004,0.30000000000000004 0 0 1 0.29000000000000004,0.29000000000000004 zm16.57,0.30000000000000004 h-1.33 a0.45,0.45 0 0 1 -0.45,-0.31000000000000005 l-0.7500000000000001,-1.6600000000000001 H518.315071105957 l-0.7500000000000001,1.6600000000000001 a0.47000000000000003,0.47000000000000003 0 0 1 -0.45,0.31000000000000005 h-1.34 a0.27,0.27 0 0 1 -0.26,-0.4 L520.315071105957,199.4246597290039 a0.26,0.26 0 0 1 0.26,-0.17 h0.15000000000000002 a0.26,0.26 0 0 1 0.27,0.17 l4.74,10.36 A0.27,0.27 0 0 1 525.435071105957,210.21465972900393 zm12.44,-9.22 a0.29000000000000004,0.29000000000000004 0 0 1 -0.29000000000000004,0.29000000000000004 h-2.36 v8.63 a0.30000000000000004,0.30000000000000004 0 0 1 -0.29000000000000004,0.30000000000000004 h-1.4300000000000002 a0.31000000000000005,0.31000000000000005 0 0 1 -0.29000000000000004,-0.30000000000000004 v-8.63 h-2.36 a0.29000000000000004,0.29000000000000004 0 0 1 -0.29000000000000004,-0.29000000000000004 V199.72465972900392 a0.29000000000000004,0.29000000000000004 0 0 1 0.29000000000000004,-0.29000000000000004 h6.73 a0.29000000000000004,0.29000000000000004 0 0 1 0.29000000000000004,0.29000000000000004 zm8.85,8.92 a0.31000000000000005,0.31000000000000005 0 0 1 -0.29000000000000004,0.30000000000000004 h-1.4300000000000002 a0.30000000000000004,0.30000000000000004 0 0 1 -0.29000000000000004,-0.30000000000000004 V199.72465972900392 a0.30000000000000004,0.30000000000000004 0 0 1 0.29000000000000004,-0.29000000000000004 h1.4300000000000002 a0.30000000000000004,0.30000000000000004 0 0 1 0.29000000000000004,0.29000000000000004 zm16.84,-10.08 l-4.77,10.36 a0.29000000000000004,0.29000000000000004 0 0 1 -0.26,0.17 h-0.16000000000000003 a0.28,0.28 0 0 1 -0.26,-0.17 L553.315071105957,199.8346597290039 a0.28,0.28 0 0 1 0.27,-0.4 h1.57 a0.29000000000000004,0.29000000000000004 0 0 1 0.26,0.17 l3,6.62 h0.11000000000000001 l3,-6.62 a0.27,0.27 0 0 1 0.26,-0.17 H563.315071105957 A0.27,0.27 0 0 1 563.565071105957,199.8346597290039 zm13.48,1.1600000000000001 a0.29000000000000004,0.29000000000000004 0 0 1 -0.29000000000000004,0.29000000000000004 h-4.5600000000000005 v2.52 h3.81 a0.31000000000000005,0.31000000000000005 0 0 1 0.29000000000000004,0.30000000000000004 V205.4246597290039 a0.30000000000000004,0.30000000000000004 0 0 1 -0.29000000000000004,0.30000000000000004 h-3.81 v2.6900000000000004 h4.5600000000000005 a0.29000000000000004,0.29000000000000004 0 0 1 0.29000000000000004,0.29000000000000004 v1.26 a0.29000000000000004,0.29000000000000004 0 0 1 -0.29000000000000004,0.30000000000000004 h-6.26 a0.30000000000000004,0.30000000000000004 0 0 1 -0.30000000000000004,-0.30000000000000004 V199.72465972900392 a0.30000000000000004,0.30000000000000004 0 0 1 0.30000000000000004,-0.29000000000000004 h6.26 a0.29000000000000004,0.29000000000000004 0 0 1 0.29000000000000004,0.29000000000000004 z" id="svg_63"/></g></g></svg>