<?xml version="1.0" encoding="UTF-8"?>
<svg width="160px" height="35px" viewBox="0 0 160 35" version="1.1" xmlns="http://www.w3.org/2000/svg" xmlns:xlink="http://www.w3.org/1999/xlink">
    <!-- Generator: Sketch 53.1 (72631) - https://sketchapp.com -->
    <title>inline-default</title>
    <desc>Created with Sketch.</desc>
    <g id="Symbols" stroke="none" stroke-width="1" fill="none" fill-rule="evenodd">
        <g id="Brand/Logo/default" transform="translate(0.000000, -3.000000)" fill-rule="nonzero">
            <g id="inline-default" transform="translate(0.000000, 3.000000)">
                <path d="M85.1448079,28.3138642 C83.6226717,28.3138642 82.2075269,28.0345832 80.9022756,27.4764364 C79.5953658,26.9182896 78.472788,26.1616353 77.5345415,25.2095881 C76.5946364,24.2575408 75.8591757,23.137925 75.3265007,21.8569698 C74.7938254,20.5733153 74.5275916,19.2086796 74.5275916,17.7603635 L74.5275916,17.6829123 C74.5275916,16.2345962 74.7938254,14.8639388 75.3265007,13.5676181 C75.8591757,12.2712972 76.5946364,11.142545 77.5345415,10.1749245 C78.472788,9.21041864 79.5953658,8.44753497 80.9022756,7.8893882 C82.2075269,7.33103376 83.6475536,7.05196039 85.2206969,7.05196039 C87.1484046,7.05196039 88.7464298,7.35595104 90.0160171,7.96683937 C91.2841528,8.57461304 92.3990592,9.41494787 93.3638458,10.4820298 L89.8256723,14.2902188 C89.1661006,13.6047863 88.4862088,13.0590981 87.7895222,12.652739 C87.0911767,12.2465876 86.2223918,12.0418507 85.1821304,12.0418507 C84.4466696,12.0418507 83.7806705,12.1907314 83.1845472,12.4820558 C82.5884235,12.7737955 82.0681895,13.1737176 81.6252958,13.6824451 C81.1809504,14.190965 80.83862,14.7802584 80.597268,15.4530246 C80.3557084,16.1259984 80.2364838,16.8456921 80.2364838,17.6083681 L80.2364838,17.6829123 C80.2364838,18.4707132 80.3557084,19.2086796 80.597268,19.8939044 C80.83862,20.5793369 81.1871709,21.1779743 81.6439568,21.6833795 C82.1007428,22.192107 82.6456514,22.5920292 83.2805489,22.8837688 C83.9137874,23.1782079 84.6245735,23.3239739 85.4112493,23.3239739 C86.374377,23.3239739 87.2180731,23.1254663 87.9410929,22.7315659 C88.6643203,22.3378731 89.3813269,21.8106652 90.0919061,21.1499423 L93.478094,24.5800118 C92.4888404,25.6747104 91.3602494,26.5677868 90.0919061,27.2687925 C88.8221115,27.966476 87.1732862,28.3138642 85.1448079,28.3138642 Z M130.109574,27.8579198 L130.109574,0.0400753747 L135.894148,0.0400753747 L135.894148,27.8579198 L130.109574,27.8579198 Z M153.638657,7.43338145 L159.650898,7.43338145 L151.811305,28.3541264 C151.432067,29.3960834 151.025044,30.2769088 150.594384,31.0024165 C150.16248,31.7252249 149.687032,32.3174253 149.167006,32.7734113 C148.646564,33.2323043 148.056661,33.5612122 147.396882,33.7657415 C146.737518,33.9673637 145.977176,34.0697321 145.114818,34.0697321 C144.049468,34.0697321 143.109563,33.942654 142.298213,33.6882903 C141.486863,33.4339265 140.712629,33.0896529 139.977168,32.6585842 L141.918975,28.4687458 C142.298213,28.6952853 142.710005,28.8875635 143.154557,29.0393512 C143.598903,29.1915542 144.010694,29.2690054 144.391591,29.2690054 C144.899592,29.2690054 145.298943,29.1728662 145.590265,28.980588 C145.881174,28.7914244 146.155287,28.4409215 146.407628,27.9355163 L138.417917,7.43338145 L144.543369,7.43338145 L149.186911,21.3424075 L153.638657,7.43338145 Z M126.89733,12.3860205 L122.101802,12.3860205 L122.101802,21.1128779 C122.101802,22.4339084 122.722807,23.0946312 123.966061,23.0946312 C124.980404,23.0946312 125.93275,22.8527261 126.821441,22.3718228 L126.821441,27.0205542 C126.211218,27.3741718 125.539205,27.6625892 124.803744,27.8764624 C124.068284,28.0936579 123.218367,28.202048 122.25358,28.202048 C121.366342,28.202048 120.561212,28.1061165 119.838192,27.9138383 C119.115173,27.7246747 118.492716,27.3895374 117.973933,26.9057272 C117.453699,26.4221246 117.046262,25.7956629 116.755353,25.0203207 C116.464238,24.2449784 116.318473,23.2588775 116.318473,22.0649252 L116.318473,14.1397808 L116.318473,12.3860205 L116.318473,7.4332984 L116.318473,2.21105454 L122.101802,2.21105454 L122.101802,7.4332984 L126.89733,7.4332984 L126.89733,12.3860205 Z M23.1667017,21.1499423 L26.5530971,24.5800118 C23.9396923,27.471453 21.4540133,28.3138642 18.2196035,28.3138642 C15.148998,28.3138642 12.4812681,27.1089067 10.6091298,25.2095881 C8.7747286,23.3513829 7.60238722,20.7315399 7.60238722,17.7603635 L7.60238722,17.6829123 C7.60238722,11.9617002 11.9475563,7.05756677 18.2859546,7.05299861 L18.286162,7.04261643 C22.4378761,7.09328154 26.8437979,9.65664534 26.4044291,13.7846059 C26.08076,16.7929506 24.120499,18.6077582 20.8813202,20.0496374 C17.2898584,21.6449654 14.7258022,19.0828474 15.0042696,16.9578199 C20.9364746,16.7991799 22.0269138,13.3194836 20.5750683,12.1510714 C17.6690965,9.81279356 11.7972296,14.5746909 13.6718561,19.8939044 C14.405036,21.974081 16.1965163,23.3239739 18.4858374,23.3239739 C20.35217,23.3239739 21.7034521,22.5100098 23.1667017,21.1499423 Z M112.758839,12.2899021 C113.113403,13.3970594 113.291307,14.6344093 113.291307,16.0050666 L113.291307,27.8580028 L107.811741,27.8580028 L107.811741,20.6569127 L107.811741,20.0495543 L107.811741,19.6272066 C107.30374,19.3977601 106.738718,19.2148259 106.117921,19.0752892 C105.495464,18.9357525 104.829465,18.8645306 104.120337,18.8645306 C102.877083,18.8645306 101.900063,19.1064358 101.190728,19.590246 C100.480149,20.070734 100.123926,20.7686251 100.123926,21.6835041 L100.123926,21.7609553 C100.123926,22.5487562 100.416701,23.1596445 101.000383,23.5907132 C101.582614,24.021782 102.344201,24.2387698 103.282654,24.2387698 C104.494806,24.2387698 105.456068,23.9354021 106.2415,23.4181612 L106.2415,24.0429616 C106.2415,26.2543691 104.529641,28.0810124 102.325539,28.2163962 C102.076101,28.2315542 101.81277,28.2394447 101.532851,28.2394447 C100.568271,28.2394447 99.6609199,28.1059296 98.812455,27.8393149 C97.9608798,27.5727001 97.2191986,27.1725703 96.5859601,26.6391332 C95.9510626,26.1059037 95.4494897,25.4514101 95.082485,24.6760678 C94.714029,23.9007256 94.5311486,23.0045345 94.5311486,21.9904018 L94.5311486,21.9129506 C94.5311486,20.7964494 94.7339344,19.8288288 95.1397129,19.0163183 C95.5452841,18.2038078 96.1105127,17.5310416 96.8335325,16.9973968 C97.5567599,16.4641673 98.4176658,16.0640375 99.4210189,15.7974227 C100.422921,15.5306003 101.532851,15.397293 102.749979,15.397293 C103.790448,15.397293 104.696348,15.4716295 105.470583,15.6267395 C106.244817,15.7787348 106.998939,15.980357 107.735851,16.2347208 L107.735851,15.8933542 C107.735851,14.6715776 107.367395,13.7442399 106.631727,13.1117566 C105.896267,12.475951 104.80479,12.1565947 103.358544,12.1565947 C102.242186,12.1565947 101.258945,12.2527339 100.410273,12.4450121 C99.5603563,12.6341757 98.6652382,12.9070198 97.726992,13.2635443 L96.2807448,8.84135239 C97.3973098,8.36065679 98.5646749,7.96675632 99.7818032,7.65985864 C101.000383,7.35586799 102.471304,7.20387265 104.196226,7.20387265 C105.794044,7.20387265 107.158182,7.39926558 108.287188,7.79316601 C109.415779,8.18706648 110.348012,8.75455722 111.083473,9.48961662 C111.845267,10.2522926 112.402616,11.1858596 112.758839,12.2899021 Z M69.5650045,7.43338145 L71.6123515,7.43338145 L71.6123515,27.8580651 L65.8275704,27.8580651 L65.8275704,24.9614328 C65.4976809,25.3954086 65.1368966,25.807997 64.7435587,26.1987828 C64.3504284,26.5957979 63.9120963,26.9431861 63.4306361,27.2469691 C62.9475169,27.5540744 62.414842,27.7959796 61.8326109,27.9726845 C61.2489281,28.1493895 60.5893567,28.2395069 59.853896,28.2395069 C57.6458549,28.2395069 55.9395943,27.5663254 54.7349067,26.2205854 C53.5302191,24.8746377 52.9278756,23.0168478 52.9278756,20.656975 L52.9278756,7.43338145 L58.7109979,7.43338145 L58.7109979,18.827217 C58.7109979,20.1978744 59.0162131,21.2336021 59.624777,21.9314932 C60.233134,22.632499 61.0956985,22.9798872 62.2120562,22.9798872 C63.3284139,22.9798872 64.211091,22.632499 64.8565633,21.9314932 C65.5039013,21.2336021 65.8275704,20.1978744 65.8275704,18.827217 L65.8275704,7.43338145 L69.5650045,7.43338145 Z M44.069586,0.0401169035 L49.8543671,0.0401169035 L49.8543671,27.8579613 L44.069586,27.8579613 L44.069586,24.9241608 C43.3590068,25.8886667 42.5026628,26.6824893 41.5007609,27.3058362 C40.499066,27.9260685 39.2371508,28.2394031 37.7150146,28.2394031 C36.522768,28.2394031 35.3676361,28.0099566 34.2512787,27.5539706 C33.134921,27.09487 32.1454599,26.4158745 31.2845541,25.5134541 C30.4205381,24.6139408 29.7300717,23.5069912 29.2096301,22.1982118 C28.6893959,20.88964 28.4293824,19.3854676 28.4293824,17.6827877 L28.4293824,17.6084512 C28.4293824,15.905979 28.6893959,14.3986919 29.2096301,13.0899125 C29.7300717,11.7844554 30.414525,10.6772981 31.2644415,9.77487777 C32.1145652,8.87536445 33.0978059,8.19325427 34.2141635,7.73726828 C35.1679609,7.34523663 36.182511,7.10167034 37.2101239,7.04311476 C38.584629,6.96483303 39.9313494,7.46089429 40.9315926,8.40816569 C41.9320432,9.35543712 42.4995525,10.6729376 42.4995525,12.0516931 L42.4995525,13.3789528 C40.9622801,11.8162249 38.9199096,11.63246 37.2768898,12.3675194 C36.6807664,12.6341342 36.1543119,13.015576 35.6975257,13.5116372 C35.2407397,14.0047915 34.8799555,14.5971995 34.6137216,15.282632 C34.3472804,15.9678568 34.2141635,16.7431991 34.2141635,17.6084512 L34.2141635,17.6827877 C34.2141635,18.5202155 34.3472804,19.2893285 34.6137216,19.9903343 C34.8799555,20.6880177 35.2407397,21.2833328 35.6975257,21.7796017 C36.1543119,22.2756629 36.6807664,22.6571048 37.2768898,22.9239272 C37.8730131,23.1907496 38.514131,23.3238493 39.1983767,23.3238493 C39.8842816,23.3238493 40.5237406,23.1907496 41.119864,22.9239272 C41.7159873,22.6571048 42.236429,22.2756629 42.680774,21.7796017 C43.7100457,20.6302928 43.9995025,19.4473455 44.069586,18.1528935 L44.069586,15.4908988 L44.069586,12.4800624 L44.069586,10.1004634 L44.069586,0.0401169035 Z" id="wordmark" fill="#037FF3"></path>
                <path d="M5.94472884,20.1885719 C5.77677756,19.3974487 5.6527839,18.5942821 5.6527839,17.7603842 C5.6527839,16.9181806 5.73199054,16.1114841 5.87796303,15.3317813 C4.55156262,14.7688587 3.20961117,14.0151114 1.8771977,13.124942 C1.54212454,13.9478348 0.849584699,15.619991 0.144604026,17.2045216 C1.12369777,17.7875856 3.64483306,19.2388087 5.94472884,20.1885719" id="ribbon" fill="#FCB64D"></path>
            </g>
        </g>
    </g>
</svg>